<svg xmlns="http://www.w3.org/2000/svg" viewBox="0 0 1200 1200" preserveAspectRatio="xMidYMid slice"><defs><filter id="b"><feGaussianBlur stdDeviation="1.4"/></filter><filter id="b2"><feGaussianBlur stdDeviation="6"/></filter><filter id="n"><feTurbulence type="fractalNoise" baseFrequency=".012" numOctaves="4" seed="7"/><feColorMatrix values="0 0 0 0 .62 0 0 0 0 .62 0 0 0 0 .64 0 0 0 .10 0"/></filter></defs><rect width="1200" height="1200" fill="#F6F6F4"/><rect width="1200" height="1200" filter="url(#n)"/><path d="M657.7 1296.3 L636.3 1290.7 L606.8 1271.4 L575.9 1248.3 L544.4 1231.9 L525.3 1228.9 L486.3 1234.8 L464.3 1231.1 L426.4 1231.4 L408.4 1230.9 L376.9 1230.8 L338.3 1220.4 L304.3 1211.4 L268.4 1208.4 L231.6 1212.1 L212.0 1215.4 L188.8 1218.2 L162.0 1220.0 L128.0 1225.2 L96.4 1224.9 L73.5 1229.5 L33.8 1230.5 L-3.6 1221.5 L-27.6 1213.3 L-63.9 1213.3 L-94.3 1208.7 L-129.5 1197.0 L-148.2 1195.1 L-171.7 1199.4 L-201.8 1211.6 L-224.7 1227.1 L-237.7 1240.3 L-264.9 1256.4 L-288.2 1281.5 L-310.5 1301.6 L-337.3 1320.8 L-366.3 1341.5" fill="none" stroke="#B9BABB" stroke-width="1.2182493784970478" opacity="0.5967470673042532" filter="url(#b)"/><path d="M657.7 1296.3 L636.3 1290.7 L606.8 1271.4 L575.9 1248.3 L544.4 1231.9 L525.3 1228.9 L486.3 1234.8 L464.3 1231.1 L426.4 1231.4 L408.4 1230.9 L376.9 1230.8 L338.3 1220.4 L304.3 1211.4 L268.4 1208.4 L231.6 1212.1 L212.0 1215.4 L188.8 1218.2 L162.0 1220.0 L128.0 1225.2 L96.4 1224.9 L73.5 1229.5 L33.8 1230.5 L-3.6 1221.5 L-27.6 1213.3 L-63.9 1213.3 L-94.3 1208.7 L-129.5 1197.0 L-148.2 1195.1 L-171.7 1199.4 L-201.8 1211.6 L-224.7 1227.1 L-237.7 1240.3 L-264.9 1256.4 L-288.2 1281.5 L-310.5 1301.6 L-337.3 1320.8 L-366.3 1341.5" fill="none" stroke="#C9CACB" stroke-width="7.309496270982287" opacity="0.1491867668260633" filter="url(#b2)"/><path d="M-94.3 1208.7 L-73.4 1195.9 L-37.4 1181.0 L-6.0 1171.8 L24.6 1161.3 L54.9 1143.9 L89.7 1125.2 L117.4 1106.1" fill="none" stroke="#B9BABB" stroke-width="0.8" opacity="0.35" filter="url(#b)"/><path d="M-94.3 1208.7 L-73.4 1195.9 L-37.4 1181.0 L-6.0 1171.8 L24.6 1161.3 L54.9 1143.9 L89.7 1125.2 L117.4 1106.1" fill="none" stroke="#C9CACB" stroke-width="4.800000000000001" opacity="0.0875" filter="url(#b2)"/><path d="M636.3 1290.7 L652.5 1273.4 L669.3 1257.9 L696.7 1228.9 L716.4 1196.4 L723.6 1166.4 L739.8 1133.8 L751.5 1105.1 L769.2 1075.1 L789.1 1051.8 L806.1 1022.9 L822.4 997.7" fill="none" stroke="#B9BABB" stroke-width="0.8" opacity="0.35" filter="url(#b)"/><path d="M636.3 1290.7 L652.5 1273.4 L669.3 1257.9 L696.7 1228.9 L716.4 1196.4 L723.6 1166.4 L739.8 1133.8 L751.5 1105.1 L769.2 1075.1 L789.1 1051.8 L806.1 1022.9 L822.4 997.7" fill="none" stroke="#C9CACB" stroke-width="4.800000000000001" opacity="0.0875" filter="url(#b2)"/><path d="M636.3 1290.7 L661.6 1313.5 L673.5 1334.4 L687.1 1360.7 L697.0 1380.0 L711.3 1414.8 L717.9 1438.3 L719.6 1465.4 L729.1 1495.3 L739.0 1523.3 L738.8 1553.8 L730.6 1578.2 L721.0 1595.4 L709.2 1626.4 L691.8 1658.3 L682.2 1680.2" fill="none" stroke="#B9BABB" stroke-width="0.8" opacity="0.35" filter="url(#b)"/><path d="M636.3 1290.7 L661.6 1313.5 L673.5 1334.4 L687.1 1360.7 L697.0 1380.0 L711.3 1414.8 L717.9 1438.3 L719.6 1465.4 L729.1 1495.3 L739.0 1523.3 L738.8 1553.8 L730.6 1578.2 L721.0 1595.4 L709.2 1626.4 L691.8 1658.3 L682.2 1680.2" fill="none" stroke="#C9CACB" stroke-width="4.800000000000001" opacity="0.0875" filter="url(#b2)"/><path d="M401.8 652.3 L431.6 663.3 L457.8 680.7 L475.0 687.6 L500.1 707.5 L521.0 714.9 L540.3 714.9 L572.9 716.9 L598.1 714.7 L624.0 714.8 L659.6 710.4 L695.8 716.2 L713.5 721.7 L742.8 741.5 L769.2 753.9 L797.5 763.9 L820.5 774.0 L853.7 792.9 L882.0 817.5 L901.4 827.9 L931.0 846.3 L957.9 862.3 L989.6 876.8 L1024.8 887.8 L1043.3 893.3 L1074.7 902.5 L1104.4 919.8 L1129.3 941.5 L1138.9 957.3 L1158.2 981.6 L1171.6 1007.1 L1183.5 1030.8 L1190.4 1057.1 L1189.5 1088.6 L1188.3 1107.5 L1194.1 1140.0 L1210.7 1171.0 L1222.3 1185.3 L1236.0 1197.0 L1249.2 1217.8 L1269.6 1233.9 L1287.5 1246.4" fill="none" stroke="#B9BABB" stroke-width="1.4773776530377063" opacity="0.4511476705756081" filter="url(#b)"/><path d="M401.8 652.3 L431.6 663.3 L457.8 680.7 L475.0 687.6 L500.1 707.5 L521.0 714.9 L540.3 714.9 L572.9 716.9 L598.1 714.7 L624.0 714.8 L659.6 710.4 L695.8 716.2 L713.5 721.7 L742.8 741.5 L769.2 753.9 L797.5 763.9 L820.5 774.0 L853.7 792.9 L882.0 817.5 L901.4 827.9 L931.0 846.3 L957.9 862.3 L989.6 876.8 L1024.8 887.8 L1043.3 893.3 L1074.7 902.5 L1104.4 919.8 L1129.3 941.5 L1138.9 957.3 L1158.2 981.6 L1171.6 1007.1 L1183.5 1030.8 L1190.4 1057.1 L1189.5 1088.6 L1188.3 1107.5 L1194.1 1140.0 L1210.7 1171.0 L1222.3 1185.3 L1236.0 1197.0 L1249.2 1217.8 L1269.6 1233.9 L1287.5 1246.4" fill="none" stroke="#C9CACB" stroke-width="8.864265918226238" opacity="0.11278691764390203" filter="url(#b2)"/><path d="M695.8 716.2 L718.4 734.8 L750.2 754.6 L773.8 775.8 L795.8 800.7 L813.8 821.0 L834.7 841.2 L856.4 861.3" fill="none" stroke="#B9BABB" stroke-width="0.8" opacity="0.35" filter="url(#b)"/><path d="M695.8 716.2 L718.4 734.8 L750.2 754.6 L773.8 775.8 L795.8 800.7 L813.8 821.0 L834.7 841.2 L856.4 861.3" fill="none" stroke="#C9CACB" stroke-width="4.800000000000001" opacity="0.0875" filter="url(#b2)"/><path d="M1188.3 1107.5 L1212.5 1103.4 L1243.8 1095.6 L1267.4 1080.5 L1289.6 1066.9 L1318.9 1059.2 L1344.0 1051.9 L1364.0 1052.5 L1387.0 1053.2 L1419.3 1056.0" fill="none" stroke="#B9BABB" stroke-width="0.8" opacity="0.35" filter="url(#b)"/><path d="M1188.3 1107.5 L1212.5 1103.4 L1243.8 1095.6 L1267.4 1080.5 L1289.6 1066.9 L1318.9 1059.2 L1344.0 1051.9 L1364.0 1052.5 L1387.0 1053.2 L1419.3 1056.0" fill="none" stroke="#C9CACB" stroke-width="4.800000000000001" opacity="0.0875" filter="url(#b2)"/><path d="M713.5 721.7 L735.9 733.7 L763.3 746.6 L787.5 749.4 L826.5 750.1 L847.0 750.9 L881.0 761.2 L912.1 776.1 L948.6 792.0 L972.6 811.6" fill="none" stroke="#B9BABB" stroke-width="0.8" opacity="0.35" filter="url(#b)"/><path d="M713.5 721.7 L735.9 733.7 L763.3 746.6 L787.5 749.4 L826.5 750.1 L847.0 750.9 L881.0 761.2 L912.1 776.1 L948.6 792.0 L972.6 811.6" fill="none" stroke="#C9CACB" stroke-width="4.800000000000001" opacity="0.0875" filter="url(#b2)"/><path d="M665.3 -21.7 L662.2 -44.3 L657.1 -73.8 L648.5 -103.2 L644.9 -121.3 L632.6 -151.3 L621.7 -167.6 L611.7 -190.9 L609.1 -221.1 L597.7 -251.0 L579.5 -281.9 L566.8 -314.2 L554.9 -328.7 L545.3 -347.5 L533.5 -362.0 L510.9 -379.2 L496.7 -399.9 L471.6 -425.9 L444.9 -443.5 L414.4 -467.2 L385.8 -477.4 L350.9 -486.8 L317.3 -489.7 L288.7 -485.9 L265.9 -490.4 L227.7 -492.0 L208.5 -495.1 L185.3 -493.8 L149.5 -486.4 L110.0 -483.9 L78.3 -485.6 L44.5 -484.7 L25.2 -484.1" fill="none" stroke="#B9BABB" stroke-width="1.5567844785265577" opacity="0.5750873804879604" filter="url(#b)"/><path d="M665.3 -21.7 L662.2 -44.3 L657.1 -73.8 L648.5 -103.2 L644.9 -121.3 L632.6 -151.3 L621.7 -167.6 L611.7 -190.9 L609.1 -221.1 L597.7 -251.0 L579.5 -281.9 L566.8 -314.2 L554.9 -328.7 L545.3 -347.5 L533.5 -362.0 L510.9 -379.2 L496.7 -399.9 L471.6 -425.9 L444.9 -443.5 L414.4 -467.2 L385.8 -477.4 L350.9 -486.8 L317.3 -489.7 L288.7 -485.9 L265.9 -490.4 L227.7 -492.0 L208.5 -495.1 L185.3 -493.8 L149.5 -486.4 L110.0 -483.9 L78.3 -485.6 L44.5 -484.7 L25.2 -484.1" fill="none" stroke="#C9CACB" stroke-width="9.340706871159346" opacity="0.1437718451219901" filter="url(#b2)"/><path d="M44.5 -484.7 L28.5 -495.1 L-10.0 -504.6 L-34.9 -508.5 L-65.8 -505.6 L-87.4 -509.9 L-115.8 -515.6 L-144.0 -527.0" fill="none" stroke="#B9BABB" stroke-width="0.8" opacity="0.35" filter="url(#b)"/><path d="M44.5 -484.7 L28.5 -495.1 L-10.0 -504.6 L-34.9 -508.5 L-65.8 -505.6 L-87.4 -509.9 L-115.8 -515.6 L-144.0 -527.0" fill="none" stroke="#C9CACB" stroke-width="4.800000000000001" opacity="0.0875" filter="url(#b2)"/><path d="M510.9 -379.2 L491.4 -375.9 L472.8 -377.5 L444.7 -373.8 L413.3 -377.3 L379.9 -387.0 L362.6 -395.1 L345.9 -408.3 L328.8 -416.1 L291.6 -419.8 L271.7 -420.1 L236.8 -409.3 L199.6 -400.6 L182.2 -389.8" fill="none" stroke="#B9BABB" stroke-width="0.8" opacity="0.35" filter="url(#b)"/><path d="M510.9 -379.2 L491.4 -375.9 L472.8 -377.5 L444.7 -373.8 L413.3 -377.3 L379.9 -387.0 L362.6 -395.1 L345.9 -408.3 L328.8 -416.1 L291.6 -419.8 L271.7 -420.1 L236.8 -409.3 L199.6 -400.6 L182.2 -389.8" fill="none" stroke="#C9CACB" stroke-width="4.800000000000001" opacity="0.0875" filter="url(#b2)"/><path d="M444.9 -443.5 L459.5 -426.5 L472.0 -408.8 L494.3 -389.0 L511.4 -376.4 L534.0 -357.9 L557.3 -341.7 L587.6 -332.8 L612.9 -331.0 L649.1 -341.2 L675.1 -346.8 L713.1 -353.8 L737.0 -365.1 L762.1 -372.7" fill="none" stroke="#B9BABB" stroke-width="0.8" opacity="0.35" filter="url(#b)"/><path d="M444.9 -443.5 L459.5 -426.5 L472.0 -408.8 L494.3 -389.0 L511.4 -376.4 L534.0 -357.9 L557.3 -341.7 L587.6 -332.8 L612.9 -331.0 L649.1 -341.2 L675.1 -346.8 L713.1 -353.8 L737.0 -365.1 L762.1 -372.7" fill="none" stroke="#C9CACB" stroke-width="4.800000000000001" opacity="0.0875" filter="url(#b2)"/><path d="M889.5 1171.5 L906.1 1183.0 L929.2 1205.3 L953.5 1233.3 L970.7 1249.3 L985.3 1263.9 L1010.0 1285.9 L1033.1 1309.3 L1057.9 1337.3 L1068.5 1358.9 L1085.6 1381.9 L1107.5 1403.2 L1131.4 1419.6 L1164.7 1430.4 L1189.8 1441.8 L1209.9 1452.2 L1228.5 1471.2 L1254.8 1490.6 L1266.5 1505.0 L1289.4 1523.1 L1311.4 1543.4 L1333.5 1557.8 L1360.6 1578.5 L1391.3 1590.9 L1419.9 1605.5 L1446.2 1618.2 L1473.5 1621.5 L1506.1 1635.8 L1533.8 1641.1 L1566.1 1646.6 L1596.5 1646.9 L1629.9 1641.0 L1659.7 1641.7 L1697.6 1645.8 L1735.8 1654.1 L1766.9 1652.7 L1794.1 1654.9 L1822.6 1664.5 L1855.2 1668.1 L1887.4 1668.5" fill="none" stroke="#B9BABB" stroke-width="1.356353786225461" opacity="0.41111214449671485" filter="url(#b)"/><path d="M889.5 1171.5 L906.1 1183.0 L929.2 1205.3 L953.5 1233.3 L970.7 1249.3 L985.3 1263.9 L1010.0 1285.9 L1033.1 1309.3 L1057.9 1337.3 L1068.5 1358.9 L1085.6 1381.9 L1107.5 1403.2 L1131.4 1419.6 L1164.7 1430.4 L1189.8 1441.8 L1209.9 1452.2 L1228.5 1471.2 L1254.8 1490.6 L1266.5 1505.0 L1289.4 1523.1 L1311.4 1543.4 L1333.5 1557.8 L1360.6 1578.5 L1391.3 1590.9 L1419.9 1605.5 L1446.2 1618.2 L1473.5 1621.5 L1506.1 1635.8 L1533.8 1641.1 L1566.1 1646.6 L1596.5 1646.9 L1629.9 1641.0 L1659.7 1641.7 L1697.6 1645.8 L1735.8 1654.1 L1766.9 1652.7 L1794.1 1654.9 L1822.6 1664.5 L1855.2 1668.1 L1887.4 1668.5" fill="none" stroke="#C9CACB" stroke-width="8.138122717352767" opacity="0.10277803612417871" filter="url(#b2)"/><path d="M1391.3 1590.9 L1422.1 1602.7 L1445.2 1607.2 L1481.2 1613.1 L1498.3 1621.9 L1522.2 1637.4 L1551.8 1646.4" fill="none" stroke="#B9BABB" stroke-width="0.8" opacity="0.35" filter="url(#b)"/><path d="M1391.3 1590.9 L1422.1 1602.7 L1445.2 1607.2 L1481.2 1613.1 L1498.3 1621.9 L1522.2 1637.4 L1551.8 1646.4" fill="none" stroke="#C9CACB" stroke-width="4.800000000000001" opacity="0.0875" filter="url(#b2)"/><path d="M970.7 1249.3 L993.7 1270.5 L1008.1 1291.7 L1033.0 1313.0 L1057.2 1341.5 L1076.2 1365.8 L1089.4 1395.9 L1091.3 1420.1 L1087.7 1451.9 L1086.1 1470.0 L1084.3 1493.7 L1080.1 1522.6" fill="none" stroke="#B9BABB" stroke-width="0.8" opacity="0.35" filter="url(#b)"/><path d="M970.7 1249.3 L993.7 1270.5 L1008.1 1291.7 L1033.0 1313.0 L1057.2 1341.5 L1076.2 1365.8 L1089.4 1395.9 L1091.3 1420.1 L1087.7 1451.9 L1086.1 1470.0 L1084.3 1493.7 L1080.1 1522.6" fill="none" stroke="#C9CACB" stroke-width="4.800000000000001" opacity="0.0875" filter="url(#b2)"/><path d="M1659.7 1641.7 L1664.6 1672.7 L1665.8 1712.5 L1661.5 1736.5 L1657.4 1765.3 L1648.0 1790.3 L1630.7 1813.1 L1615.0 1837.0 L1596.6 1872.4 L1592.2 1898.9 L1596.5 1931.5 L1604.4 1951.3 L1617.4 1979.7 L1624.1 2006.6 L1634.0 2030.8" fill="none" stroke="#B9BABB" stroke-width="0.8" opacity="0.35" filter="url(#b)"/><path d="M1659.7 1641.7 L1664.6 1672.7 L1665.8 1712.5 L1661.5 1736.5 L1657.4 1765.3 L1648.0 1790.3 L1630.7 1813.1 L1615.0 1837.0 L1596.6 1872.4 L1592.2 1898.9 L1596.5 1931.5 L1604.4 1951.3 L1617.4 1979.7 L1624.1 2006.6 L1634.0 2030.8" fill="none" stroke="#C9CACB" stroke-width="4.800000000000001" opacity="0.0875" filter="url(#b2)"/><path d="M1143.7 198.5 L1180.6 191.7 L1200.1 191.5 L1222.6 194.1 L1253.8 196.5 L1291.3 187.3 L1311.2 180.0 L1331.3 176.8 L1360.0 161.8 L1393.1 143.6 L1414.7 137.0 L1440.2 118.9 L1459.9 104.2 L1481.2 96.5 L1500.2 91.7 L1539.0 93.7 L1563.9 97.0 L1600.2 107.8 L1616.8 116.8 L1635.3 126.9 L1668.8 146.6 L1685.4 163.2 L1702.4 181.6 L1730.9 200.7 L1749.1 218.5 L1774.2 240.4 L1792.3 262.0 L1808.8 273.5 L1842.4 286.9 L1872.3 298.6 L1897.4 305.9 L1936.8 308.0 L1957.5 310.6 L1987.5 318.9 L2020.4 330.8 L2054.3 346.2" fill="none" stroke="#B9BABB" stroke-width="1.5795264137590428" opacity="0.38307048261600285" filter="url(#b)"/><path d="M1143.7 198.5 L1180.6 191.7 L1200.1 191.5 L1222.6 194.1 L1253.8 196.5 L1291.3 187.3 L1311.2 180.0 L1331.3 176.8 L1360.0 161.8 L1393.1 143.6 L1414.7 137.0 L1440.2 118.9 L1459.9 104.2 L1481.2 96.5 L1500.2 91.7 L1539.0 93.7 L1563.9 97.0 L1600.2 107.8 L1616.8 116.8 L1635.3 126.9 L1668.8 146.6 L1685.4 163.2 L1702.4 181.6 L1730.9 200.7 L1749.1 218.5 L1774.2 240.4 L1792.3 262.0 L1808.8 273.5 L1842.4 286.9 L1872.3 298.6 L1897.4 305.9 L1936.8 308.0 L1957.5 310.6 L1987.5 318.9 L2020.4 330.8 L2054.3 346.2" fill="none" stroke="#C9CACB" stroke-width="9.477158482554257" opacity="0.09576762065400071" filter="url(#b2)"/><path d="M1808.8 273.5 L1771.9 283.0 L1751.2 284.1 L1723.7 290.5 L1700.2 295.0 L1678.9 296.1 L1646.6 302.8 L1623.6 316.0 L1588.7 334.0 L1559.6 358.5 L1533.9 377.6 L1499.2 396.5 L1470.9 411.1 L1439.3 426.5 L1421.3 435.4 L1397.2 458.5 L1365.2 474.1" fill="none" stroke="#B9BABB" stroke-width="0.8" opacity="0.35" filter="url(#b)"/><path d="M1808.8 273.5 L1771.9 283.0 L1751.2 284.1 L1723.7 290.5 L1700.2 295.0 L1678.9 296.1 L1646.6 302.8 L1623.6 316.0 L1588.7 334.0 L1559.6 358.5 L1533.9 377.6 L1499.2 396.5 L1470.9 411.1 L1439.3 426.5 L1421.3 435.4 L1397.2 458.5 L1365.2 474.1" fill="none" stroke="#C9CACB" stroke-width="4.800000000000001" opacity="0.0875" filter="url(#b2)"/><path d="M1808.8 273.5 L1817.9 257.2 L1838.2 227.9 L1848.6 208.3 L1852.9 189.1 L1865.7 160.6 L1868.1 132.7 L1871.9 108.0 L1867.2 81.1 L1856.5 43.2 L1842.6 7.5" fill="none" stroke="#B9BABB" stroke-width="0.8" opacity="0.35" filter="url(#b)"/><path d="M1808.8 273.5 L1817.9 257.2 L1838.2 227.9 L1848.6 208.3 L1852.9 189.1 L1865.7 160.6 L1868.1 132.7 L1871.9 108.0 L1867.2 81.1 L1856.5 43.2 L1842.6 7.5" fill="none" stroke="#C9CACB" stroke-width="4.800000000000001" opacity="0.0875" filter="url(#b2)"/><path d="M1331.3 176.8 L1357.8 191.4 L1377.4 195.8 L1398.5 199.2 L1425.4 214.1 L1453.1 241.6 L1471.5 268.0 L1492.1 296.5 L1502.6 315.2 L1515.3 339.2 L1530.7 369.1 L1541.1 397.8 L1546.2 433.6 L1555.0 452.9 L1569.6 468.7 L1579.7 491.4 L1592.4 516.6" fill="none" stroke="#B9BABB" stroke-width="0.8" opacity="0.35" filter="url(#b)"/><path d="M1331.3 176.8 L1357.8 191.4 L1377.4 195.8 L1398.5 199.2 L1425.4 214.1 L1453.1 241.6 L1471.5 268.0 L1492.1 296.5 L1502.6 315.2 L1515.3 339.2 L1530.7 369.1 L1541.1 397.8 L1546.2 433.6 L1555.0 452.9 L1569.6 468.7 L1579.7 491.4 L1592.4 516.6" fill="none" stroke="#C9CACB" stroke-width="4.800000000000001" opacity="0.0875" filter="url(#b2)"/><path d="M690.2 291.3 L693.6 262.6 L695.0 224.8 L690.8 199.5 L688.7 166.8 L691.3 145.0 L691.2 112.6 L690.3 93.7 L680.3 67.3 L670.3 37.8 L662.0 9.1 L651.0 -28.4 L635.8 -57.0 L624.7 -83.2 L616.9 -109.8 L611.5 -146.6 L607.0 -177.1 L605.8 -203.1 L602.1 -241.0 L595.3 -257.8 L589.8 -295.4 L579.7 -317.4 L574.2 -346.7 L562.8 -384.2 L542.3 -412.7 L530.4 -439.3 L526.6 -476.3 L534.1 -508.8 L533.7 -538.4 L534.8 -576.8 L537.2 -614.4 L541.3 -637.0 L542.8 -656.7 L540.5 -677.1 L542.1 -696.3 L548.8 -727.2 L551.0 -749.1 L550.7 -776.9 L554.5 -798.7 L569.5 -834.4 L574.4 -860.3" fill="none" stroke="#B9BABB" stroke-width="1.124259518196619" opacity="0.4335839897459206" filter="url(#b)"/><path d="M690.2 291.3 L693.6 262.6 L695.0 224.8 L690.8 199.5 L688.7 166.8 L691.3 145.0 L691.2 112.6 L690.3 93.7 L680.3 67.3 L670.3 37.8 L662.0 9.1 L651.0 -28.4 L635.8 -57.0 L624.7 -83.2 L616.9 -109.8 L611.5 -146.6 L607.0 -177.1 L605.8 -203.1 L602.1 -241.0 L595.3 -257.8 L589.8 -295.4 L579.7 -317.4 L574.2 -346.7 L562.8 -384.2 L542.3 -412.7 L530.4 -439.3 L526.6 -476.3 L534.1 -508.8 L533.7 -538.4 L534.8 -576.8 L537.2 -614.4 L541.3 -637.0 L542.8 -656.7 L540.5 -677.1 L542.1 -696.3 L548.8 -727.2 L551.0 -749.1 L550.7 -776.9 L554.5 -798.7 L569.5 -834.4 L574.4 -860.3" fill="none" stroke="#C9CACB" stroke-width="6.745557109179714" opacity="0.10839599743648015" filter="url(#b2)"/><path d="M537.2 -614.4 L531.4 -642.6 L521.8 -660.4 L515.6 -698.4 L504.5 -720.4 L488.3 -745.2 L460.5 -769.2 L428.5 -790.6 L402.6 -801.5 L387.3 -813.8 L368.9 -830.7" fill="none" stroke="#B9BABB" stroke-width="0.8" opacity="0.35" filter="url(#b)"/><path d="M537.2 -614.4 L531.4 -642.6 L521.8 -660.4 L515.6 -698.4 L504.5 -720.4 L488.3 -745.2 L460.5 -769.2 L428.5 -790.6 L402.6 -801.5 L387.3 -813.8 L368.9 -830.7" fill="none" stroke="#C9CACB" stroke-width="4.800000000000001" opacity="0.0875" filter="url(#b2)"/><path d="M691.3 145.0 L705.1 124.8 L732.9 102.2 L747.2 88.8 L771.0 75.6 L793.7 61.2 L818.0 48.1 L848.8 31.3 L868.1 17.2 L895.4 -9.7 L914.5 -27.6 L928.0 -40.9 L954.6 -64.5 L971.5 -91.3 L978.9 -125.2" fill="none" stroke="#B9BABB" stroke-width="0.8" opacity="0.35" filter="url(#b)"/><path d="M691.3 145.0 L705.1 124.8 L732.9 102.2 L747.2 88.8 L771.0 75.6 L793.7 61.2 L818.0 48.1 L848.8 31.3 L868.1 17.2 L895.4 -9.7 L914.5 -27.6 L928.0 -40.9 L954.6 -64.5 L971.5 -91.3 L978.9 -125.2" fill="none" stroke="#C9CACB" stroke-width="4.800000000000001" opacity="0.0875" filter="url(#b2)"/><path d="M662.0 9.1 L680.5 34.1 L689.0 50.7 L710.7 71.1 L734.4 84.5 L767.2 100.3 L784.3 110.9" fill="none" stroke="#B9BABB" stroke-width="0.8" opacity="0.35" filter="url(#b)"/><path d="M662.0 9.1 L680.5 34.1 L689.0 50.7 L710.7 71.1 L734.4 84.5 L767.2 100.3 L784.3 110.9" fill="none" stroke="#C9CACB" stroke-width="4.800000000000001" opacity="0.0875" filter="url(#b2)"/><path d="M440.6 277.5 L416.9 292.6 L390.6 308.6 L359.5 326.7 L341.1 331.9 L309.7 335.0 L271.7 336.2 L244.9 345.9 L209.7 362.2 L185.8 381.0 L164.8 408.5 L144.2 435.8 L125.9 468.5 L122.1 491.1 L110.1 526.4 L98.1 547.2 L90.4 580.0 L83.0 597.8 L64.0 620.6 L53.7 647.2 L48.6 666.8 L29.2 700.2 L22.0 727.0 L18.6 759.6 L22.8 784.6 L29.3 812.2 L37.8 842.2 L36.6 880.6 L25.4 915.1 L22.4 938.3 L19.3 970.3 L14.9 995.6 L2.6 1017.2 L-1.0 1036.9 L-0.2 1070.9 L-4.3 1089.4 L-5.0 1112.7 L-13.7 1149.5 L-15.0 1169.7 L-30.1 1206.1 L-44.8 1230.3 L-67.8 1256.6 L-83.6 1274.6 L-105.6 1298.6 L-124.2 1324.7 L-138.5 1361.4 L-142.4 1384.1 L-160.7 1418.3 L-186.6 1444.1 L-217.6 1462.5 L-234.9 1471.8 L-269.4 1483.5 L-288.3 1485.3" fill="none" stroke="#B9BABB" stroke-width="2.072646782884252" opacity="0.5314698654072747" filter="url(#b)"/><path d="M440.6 277.5 L416.9 292.6 L390.6 308.6 L359.5 326.7 L341.1 331.9 L309.7 335.0 L271.7 336.2 L244.9 345.9 L209.7 362.2 L185.8 381.0 L164.8 408.5 L144.2 435.8 L125.9 468.5 L122.1 491.1 L110.1 526.4 L98.1 547.2 L90.4 580.0 L83.0 597.8 L64.0 620.6 L53.7 647.2 L48.6 666.8 L29.2 700.2 L22.0 727.0 L18.6 759.6 L22.8 784.6 L29.3 812.2 L37.8 842.2 L36.6 880.6 L25.4 915.1 L22.4 938.3 L19.3 970.3 L14.9 995.6 L2.6 1017.2 L-1.0 1036.9 L-0.2 1070.9 L-4.3 1089.4 L-5.0 1112.7 L-13.7 1149.5 L-15.0 1169.7 L-30.1 1206.1 L-44.8 1230.3 L-67.8 1256.6 L-83.6 1274.6 L-105.6 1298.6 L-124.2 1324.7 L-138.5 1361.4 L-142.4 1384.1 L-160.7 1418.3 L-186.6 1444.1 L-217.6 1462.5 L-234.9 1471.8 L-269.4 1483.5 L-288.3 1485.3" fill="none" stroke="#C9CACB" stroke-width="12.43588069730551" opacity="0.13286746635181867" filter="url(#b2)"/><path d="M359.5 326.7 L329.5 334.1 L293.0 338.3 L269.3 346.2 L251.3 353.1 L216.5 354.1 L183.0 358.0 L144.9 364.9 L119.6 376.4 L86.6 383.1 L50.6 400.0 L14.6 405.3 L-21.5 420.7 L-52.1 426.1" fill="none" stroke="#B9BABB" stroke-width="0.8" opacity="0.35" filter="url(#b)"/><path d="M359.5 326.7 L329.5 334.1 L293.0 338.3 L269.3 346.2 L251.3 353.1 L216.5 354.1 L183.0 358.0 L144.9 364.9 L119.6 376.4 L86.6 383.1 L50.6 400.0 L14.6 405.3 L-21.5 420.7 L-52.1 426.1" fill="none" stroke="#C9CACB" stroke-width="4.800000000000001" opacity="0.0875" filter="url(#b2)"/><path d="M209.7 362.2 L198.4 330.6 L185.0 309.8 L170.8 296.0 L154.2 276.4 L141.3 242.1 L135.1 223.9" fill="none" stroke="#B9BABB" stroke-width="0.8" opacity="0.35" filter="url(#b)"/><path d="M209.7 362.2 L198.4 330.6 L185.0 309.8 L170.8 296.0 L154.2 276.4 L141.3 242.1 L135.1 223.9" fill="none" stroke="#C9CACB" stroke-width="4.800000000000001" opacity="0.0875" filter="url(#b2)"/><path d="M22.4 938.3 L2.6 908.3 L-4.1 881.0 L-21.3 854.7 L-38.5 821.9 L-48.8 798.0 L-73.5 771.5 L-98.0 740.3" fill="none" stroke="#B9BABB" stroke-width="0.8" opacity="0.35" filter="url(#b)"/><path d="M22.4 938.3 L2.6 908.3 L-4.1 881.0 L-21.3 854.7 L-38.5 821.9 L-48.8 798.0 L-73.5 771.5 L-98.0 740.3" fill="none" stroke="#C9CACB" stroke-width="4.800000000000001" opacity="0.0875" filter="url(#b2)"/><path d="M730.8 1093.8 L732.0 1075.6 L730.5 1049.9 L738.1 1024.3 L742.4 991.4 L738.7 967.0 L734.1 946.8 L729.8 919.8 L731.2 894.4 L739.7 873.7 L748.8 852.7 L750.6 828.1 L758.9 805.1 L768.7 777.3 L773.9 748.0 L770.6 722.5 L760.7 688.0 L757.7 654.7 L756.8 617.6 L759.6 598.6 L755.7 564.4 L760.6 524.9 L767.3 504.5 L778.6 474.9 L787.5 455.9 L807.7 434.8 L830.1 402.2 L839.9 385.2 L854.1 366.2 L864.6 344.0 L877.1 322.2 L899.5 291.7 L930.6 270.7 L953.2 263.7 L973.1 262.3 L992.8 262.0 L1029.9 250.7" fill="none" stroke="#B9BABB" stroke-width="1.5547516068837053" opacity="0.5742989626416032" filter="url(#b)"/><path d="M730.8 1093.8 L732.0 1075.6 L730.5 1049.9 L738.1 1024.3 L742.4 991.4 L738.7 967.0 L734.1 946.8 L729.8 919.8 L731.2 894.4 L739.7 873.7 L748.8 852.7 L750.6 828.1 L758.9 805.1 L768.7 777.3 L773.9 748.0 L770.6 722.5 L760.7 688.0 L757.7 654.7 L756.8 617.6 L759.6 598.6 L755.7 564.4 L760.6 524.9 L767.3 504.5 L778.6 474.9 L787.5 455.9 L807.7 434.8 L830.1 402.2 L839.9 385.2 L854.1 366.2 L864.6 344.0 L877.1 322.2 L899.5 291.7 L930.6 270.7 L953.2 263.7 L973.1 262.3 L992.8 262.0 L1029.9 250.7" fill="none" stroke="#C9CACB" stroke-width="9.328509641302231" opacity="0.1435747406604008" filter="url(#b2)"/><path d="M731.2 894.4 L735.0 930.3 L748.1 964.5 L754.1 998.1 L751.9 1026.9 L751.0 1050.8 L748.4 1068.7 L743.6 1108.4 L743.6 1130.3 L745.6 1164.1 L741.9 1184.5 L735.1 1220.2 L720.8 1250.2 L715.0 1269.2 L709.9 1291.1" fill="none" stroke="#B9BABB" stroke-width="0.8" opacity="0.35" filter="url(#b)"/><path d="M731.2 894.4 L735.0 930.3 L748.1 964.5 L754.1 998.1 L751.9 1026.9 L751.0 1050.8 L748.4 1068.7 L743.6 1108.4 L743.6 1130.3 L745.6 1164.1 L741.9 1184.5 L735.1 1220.2 L720.8 1250.2 L715.0 1269.2 L709.9 1291.1" fill="none" stroke="#C9CACB" stroke-width="4.800000000000001" opacity="0.0875" filter="url(#b2)"/><path d="M730.8 1093.8 L758.2 1122.4 L770.7 1137.2 L786.1 1148.4 L810.1 1169.1 L822.8 1190.1 L838.0 1207.2 L853.4 1217.6" fill="none" stroke="#B9BABB" stroke-width="0.8" opacity="0.35" filter="url(#b)"/><path d="M730.8 1093.8 L758.2 1122.4 L770.7 1137.2 L786.1 1148.4 L810.1 1169.1 L822.8 1190.1 L838.0 1207.2 L853.4 1217.6" fill="none" stroke="#C9CACB" stroke-width="4.800000000000001" opacity="0.0875" filter="url(#b2)"/><path d="M899.5 291.7 L863.9 276.0 L829.1 265.9 L809.8 259.8 L778.4 260.5 L759.8 256.0 L738.4 247.4 L706.7 229.6 L688.4 215.1 L652.7 198.7 L623.9 173.5 L609.9 160.4 L579.8 137.2" fill="none" stroke="#B9BABB" stroke-width="0.8" opacity="0.35" filter="url(#b)"/><path d="M899.5 291.7 L863.9 276.0 L829.1 265.9 L809.8 259.8 L778.4 260.5 L759.8 256.0 L738.4 247.4 L706.7 229.6 L688.4 215.1 L652.7 198.7 L623.9 173.5 L609.9 160.4 L579.8 137.2" fill="none" stroke="#C9CACB" stroke-width="4.800000000000001" opacity="0.0875" filter="url(#b2)"/><path d="M-6.2 313.4 L32.6 311.4 L68.4 302.8 L91.9 292.1 L109.4 281.0 L132.1 255.2 L145.1 239.1 L169.3 212.3 L185.5 187.0 L196.3 166.4 L205.4 147.4 L222.2 111.5 L228.5 75.4 L227.7 35.7 L227.4 10.1 L234.4 -18.7 L232.1 -50.5 L228.7 -84.2 L234.1 -106.7 L232.2 -134.6 L231.1 -174.5 L225.3 -202.2 L213.9 -237.1 L211.7 -264.1 L216.0 -281.9 L217.6 -300.4 L214.4 -338.2 L222.5 -368.2 L231.4 -394.7 L238.8 -423.2 L246.2 -443.5 L265.1 -470.0 L282.3 -483.9 L308.6 -505.5 L331.1 -516.4 L353.0 -533.5 L374.3 -551.2 L388.3 -570.7 L416.8 -597.7 L430.5 -615.2 L458.8 -639.7 L478.6 -662.4" fill="none" stroke="#B9BABB" stroke-width="2.0415602333747853" opacity="0.5667093164401945" filter="url(#b)"/><path d="M-6.2 313.4 L32.6 311.4 L68.4 302.8 L91.9 292.1 L109.4 281.0 L132.1 255.2 L145.1 239.1 L169.3 212.3 L185.5 187.0 L196.3 166.4 L205.4 147.4 L222.2 111.5 L228.5 75.4 L227.7 35.7 L227.4 10.1 L234.4 -18.7 L232.1 -50.5 L228.7 -84.2 L234.1 -106.7 L232.2 -134.6 L231.1 -174.5 L225.3 -202.2 L213.9 -237.1 L211.7 -264.1 L216.0 -281.9 L217.6 -300.4 L214.4 -338.2 L222.5 -368.2 L231.4 -394.7 L238.8 -423.2 L246.2 -443.5 L265.1 -470.0 L282.3 -483.9 L308.6 -505.5 L331.1 -516.4 L353.0 -533.5 L374.3 -551.2 L388.3 -570.7 L416.8 -597.7 L430.5 -615.2 L458.8 -639.7 L478.6 -662.4" fill="none" stroke="#C9CACB" stroke-width="12.249361400248713" opacity="0.14167732911004863" filter="url(#b2)"/><path d="M374.3 -551.2 L344.6 -553.4 L304.7 -552.6 L276.5 -557.1 L256.7 -556.2 L227.8 -552.4 L189.1 -555.4 L158.0 -549.5 L125.1 -550.8" fill="none" stroke="#B9BABB" stroke-width="0.8" opacity="0.35" filter="url(#b)"/><path d="M374.3 -551.2 L344.6 -553.4 L304.7 -552.6 L276.5 -557.1 L256.7 -556.2 L227.8 -552.4 L189.1 -555.4 L158.0 -549.5 L125.1 -550.8" fill="none" stroke="#C9CACB" stroke-width="4.800000000000001" opacity="0.0875" filter="url(#b2)"/><path d="M109.4 281.0 L132.5 295.7 L166.9 306.8 L201.2 320.9 L220.8 329.9 L255.9 339.7 L286.4 350.1 L303.8 358.0 L330.6 363.8 L365.4 380.8 L386.0 392.5 L415.7 398.6 L453.8 403.9 L476.3 402.3 L493.4 394.9" fill="none" stroke="#B9BABB" stroke-width="0.8" opacity="0.35" filter="url(#b)"/><path d="M109.4 281.0 L132.5 295.7 L166.9 306.8 L201.2 320.9 L220.8 329.9 L255.9 339.7 L286.4 350.1 L303.8 358.0 L330.6 363.8 L365.4 380.8 L386.0 392.5 L415.7 398.6 L453.8 403.9 L476.3 402.3 L493.4 394.9" fill="none" stroke="#C9CACB" stroke-width="4.800000000000001" opacity="0.0875" filter="url(#b2)"/><path d="M217.6 -300.4 L234.3 -281.0 L252.2 -267.6 L268.8 -243.0 L281.6 -215.5 L294.2 -197.1 L309.2 -164.5" fill="none" stroke="#B9BABB" stroke-width="0.8" opacity="0.35" filter="url(#b)"/><path d="M217.6 -300.4 L234.3 -281.0 L252.2 -267.6 L268.8 -243.0 L281.6 -215.5 L294.2 -197.1 L309.2 -164.5" fill="none" stroke="#C9CACB" stroke-width="4.800000000000001" opacity="0.0875" filter="url(#b2)"/></svg>